<svg id="svg" version="1.1" xmlns="http://www.w3.org/2000/svg" xmlns:xlink="http://www.w3.org/1999/xlink" width="400" height="124.39024390243902" viewBox="0, 0, 400,124.39024390243902"><g id="svgg"><path id="path0" d="M51.219 8.648 C 50.147 8.783,50.189 8.736,50.062 9.955 L 49.956 10.965 46.713 11.024 C 42.989 11.092,42.833 11.155,42.833 12.579 L 42.833 13.287 41.958 13.392 C 41.477 13.450,40.483 13.499,39.750 13.501 C 38.058 13.506,37.957 13.576,37.868 14.796 L 37.797 15.785 35.817 15.897 C 33.203 16.045,33.000 16.180,33.000 17.775 L 33.000 18.333 32.115 18.333 C 30.921 18.333,30.672 18.551,30.553 19.697 L 30.456 20.637 29.331 20.750 L 28.205 20.863 28.105 21.473 C 28.049 21.809,28.003 22.327,28.002 22.625 L 28.000 23.167 27.097 23.167 C 25.701 23.167,25.667 23.199,25.667 24.518 L 25.667 25.667 24.579 25.667 C 23.336 25.667,23.167 25.857,23.167 27.253 C 23.167 28.045,23.131 28.067,21.600 28.206 C 20.927 28.267,20.861 28.470,20.741 30.868 L 20.634 32.986 19.525 33.034 L 18.417 33.083 18.370 35.458 L 18.324 37.833 17.279 37.833 C 15.842 37.833,15.833 37.848,15.833 40.450 L 15.833 42.667 15.094 42.667 C 14.688 42.667,14.163 42.740,13.928 42.829 L 13.500 42.992 13.500 47.725 L 13.500 52.459 12.558 52.537 C 10.948 52.670,10.952 52.646,11.028 61.953 C 11.091 69.600,11.004 69.174,12.543 69.329 L 13.417 69.417 13.500 74.250 L 13.583 79.083 14.684 79.132 L 15.785 79.181 15.885 82.299 C 16.015 86.376,16.072 86.495,17.875 86.499 C 18.331 86.500,18.333 86.507,18.333 87.649 C 18.333 88.966,18.369 89.000,19.749 89.000 L 20.636 89.000 20.755 91.148 C 20.898 93.728,20.868 93.671,22.125 93.785 L 23.131 93.876 23.198 94.932 C 23.280 96.229,23.271 96.220,24.583 96.303 L 25.652 96.371 25.701 97.477 L 25.750 98.583 26.853 98.632 L 27.956 98.681 28.040 99.740 C 28.153 101.141,28.178 101.167,29.427 101.167 L 30.500 101.167 30.500 101.729 C 30.500 103.269,30.899 103.663,32.458 103.666 L 33.000 103.667 33.003 104.542 C 33.007 105.911,33.003 105.909,35.558 105.971 L 37.795 106.025 37.867 107.015 C 37.965 108.376,37.997 108.394,40.488 108.472 L 42.638 108.539 42.751 109.512 C 42.915 110.923,42.877 110.908,46.673 110.971 L 49.962 111.025 50.034 112.026 C 50.079 112.646,50.197 113.084,50.345 113.177 C 50.605 113.342,78.007 113.394,78.615 113.231 C 79.026 113.121,79.333 112.405,79.333 111.558 L 79.333 111.000 82.738 111.000 C 86.731 111.000,86.667 111.025,86.667 109.488 L 86.667 108.500 88.821 108.500 C 91.413 108.500,91.500 108.451,91.500 106.988 L 91.500 106.000 93.125 105.999 C 94.019 105.999,95.031 105.920,95.374 105.825 C 96.017 105.646,96.036 105.613,96.244 104.311 L 96.341 103.706 97.340 103.634 C 98.582 103.544,98.711 103.415,98.801 102.169 L 98.873 101.167 99.756 101.167 C 101.129 101.167,101.167 101.131,101.167 99.823 L 101.167 98.681 102.375 98.632 L 103.583 98.583 103.633 97.458 L 103.682 96.333 104.662 96.333 C 105.944 96.333,106.167 96.112,106.167 94.842 L 106.167 93.875 107.108 93.797 C 108.429 93.687,108.500 93.546,108.500 91.051 L 108.500 89.000 109.550 89.000 C 110.863 89.000,111.000 88.863,111.000 87.550 L 111.000 86.500 111.739 86.500 C 112.146 86.500,112.671 86.427,112.906 86.337 L 113.333 86.175 113.333 82.671 L 113.333 79.167 114.383 79.167 C 115.907 79.167,115.833 79.423,115.833 74.155 L 115.833 69.543 116.818 69.432 C 118.350 69.258,118.250 69.857,118.250 60.877 C 118.250 51.843,118.370 52.500,116.718 52.500 L 115.833 52.500 115.833 47.845 C 115.833 42.452,115.896 42.667,114.334 42.667 L 113.358 42.667 113.304 39.320 C 113.242 35.491,113.246 35.500,111.801 35.500 L 111.000 35.500 111.000 34.514 C 111.000 33.025,110.978 33.000,109.649 33.000 L 108.500 33.000 108.500 31.011 C 108.500 28.425,108.403 28.167,107.434 28.167 C 106.277 28.167,106.167 28.077,106.167 27.138 C 106.167 25.831,106.008 25.667,104.744 25.667 L 103.667 25.667 103.667 24.617 C 103.667 23.304,103.530 23.167,102.217 23.167 L 101.167 23.167 101.167 22.093 C 101.167 20.853,101.178 20.864,99.867 20.727 L 98.871 20.623 98.760 19.637 C 98.633 18.518,98.397 18.333,97.092 18.333 C 96.305 18.333,96.174 18.150,96.169 17.046 C 96.165 16.225,95.721 16.036,93.479 15.902 L 91.540 15.787 91.432 14.863 C 91.275 13.525,91.234 13.500,89.188 13.498 C 86.750 13.495,86.731 13.487,86.609 12.445 C 86.445 11.032,86.356 11.000,82.586 11.000 L 79.376 11.000 79.265 10.015 C 79.198 9.426,79.045 8.940,78.885 8.807 C 78.595 8.566,53.028 8.419,51.219 8.648 M72.034 16.871 C 72.103 18.313,72.144 18.328,76.125 18.331 L 79.333 18.333 79.336 19.208 C 79.340 20.578,79.336 20.576,81.891 20.638 L 84.128 20.692 84.200 21.682 C 84.299 23.043,84.330 23.061,86.830 23.138 L 88.988 23.206 89.098 24.183 C 89.231 25.357,89.372 25.494,90.572 25.618 L 91.500 25.713 91.500 26.523 C 91.500 27.647,91.874 28.000,93.063 28.000 L 93.959 28.000 94.035 28.923 C 94.131 30.076,94.284 30.227,95.465 30.332 L 96.417 30.417 96.461 31.083 C 96.556 32.503,96.899 32.833,98.275 32.833 L 98.833 32.833 98.833 33.718 C 98.833 34.910,99.052 35.162,100.190 35.279 L 101.122 35.375 101.224 36.467 C 101.343 37.742,101.436 37.827,102.708 37.831 L 103.667 37.833 103.669 39.958 C 103.672 42.539,103.676 42.547,105.072 42.636 L 106.167 42.705 106.167 45.675 C 106.167 49.557,106.266 49.826,107.708 49.831 L 108.500 49.833 108.500 60.895 L 108.500 71.958 107.654 72.039 C 106.263 72.173,106.258 72.186,106.196 75.998 L 106.142 79.318 105.117 79.367 C 103.767 79.432,103.672 79.618,103.669 82.208 L 103.667 84.167 102.593 84.167 C 101.342 84.167,101.353 84.156,101.220 85.577 L 101.118 86.667 100.148 86.667 C 99.004 86.667,98.833 86.857,98.833 88.136 C 98.833 89.040,98.684 89.160,97.546 89.164 C 96.725 89.168,96.536 89.613,96.402 91.852 L 96.287 93.787 94.352 93.902 C 91.955 94.045,91.732 94.166,91.577 95.412 L 91.462 96.333 90.522 96.336 C 89.282 96.339,89.187 96.424,89.060 97.634 C 88.966 98.535,88.908 98.668,88.601 98.676 C 84.921 98.774,84.449 98.952,84.269 100.312 L 84.162 101.117 82.166 101.230 C 79.534 101.378,79.333 101.512,79.333 103.108 L 79.333 103.667 76.000 103.667 C 72.088 103.667,72.000 103.699,72.000 105.167 L 72.000 106.000 64.690 106.000 L 57.380 106.000 57.287 104.977 C 57.165 103.635,57.275 103.672,53.399 103.669 L 50.047 103.667 49.939 102.632 C 49.796 101.260,49.817 101.272,47.352 101.195 L 45.208 101.129 45.099 100.200 C 44.954 98.965,44.816 98.833,43.671 98.833 C 43.146 98.833,42.143 98.785,41.442 98.726 L 40.167 98.618 40.167 97.735 C 40.167 96.658,39.816 96.333,38.653 96.333 L 37.880 96.333 37.784 95.405 C 37.660 94.204,37.524 94.065,36.342 93.931 L 35.356 93.819 35.243 92.915 C 35.105 91.816,34.949 91.672,33.762 91.549 L 32.833 91.453 32.833 90.821 C 32.833 90.473,32.761 89.998,32.673 89.766 C 32.515 89.350,32.365 89.284,31.148 89.090 C 30.555 88.995,30.543 88.978,30.434 88.049 C 30.287 86.794,30.153 86.667,28.987 86.667 L 28.015 86.667 27.966 85.458 L 27.917 84.250 26.792 84.201 L 25.667 84.151 25.667 82.065 C 25.667 79.405,25.629 79.333,24.244 79.333 L 23.167 79.333 23.153 76.875 C 23.127 72.450,23.047 72.199,21.607 72.050 L 20.667 71.953 20.667 61.000 L 20.667 50.046 21.686 49.954 C 23.124 49.823,23.076 49.954,23.140 46.075 L 23.196 42.667 24.170 42.667 C 25.615 42.667,25.667 42.575,25.667 39.988 L 25.667 37.833 26.570 37.833 C 27.963 37.833,28.000 37.799,28.000 36.505 L 28.000 35.380 29.019 35.287 C 30.279 35.173,30.340 35.113,30.454 33.853 L 30.546 32.833 31.503 32.833 C 32.677 32.833,32.834 32.671,32.955 31.340 L 33.046 30.333 33.736 30.333 C 34.757 30.333,35.106 30.010,35.240 28.940 L 35.352 28.039 36.345 27.967 C 37.564 27.879,37.661 27.786,37.783 26.607 L 37.880 25.667 38.760 25.667 C 40.130 25.667,40.167 25.632,40.167 24.316 L 40.167 23.167 41.375 23.153 C 44.423 23.117,44.864 22.931,44.996 21.621 L 45.083 20.750 47.083 20.651 C 49.760 20.519,49.754 20.522,49.872 19.000 L 49.917 18.417 53.367 18.333 C 57.307 18.238,57.196 18.280,57.301 16.836 L 57.373 15.833 64.679 15.833 L 71.984 15.833 72.034 16.871 M161.212 23.308 C 159.961 23.476,159.925 23.545,159.858 25.925 L 159.799 28.000 158.994 28.000 C 158.551 28.000,157.996 28.073,157.761 28.163 L 157.333 28.325 157.333 30.655 L 157.333 32.985 156.215 33.034 C 154.858 33.094,154.874 33.060,154.850 35.875 L 154.833 37.833 153.867 37.833 C 152.520 37.833,152.500 37.872,152.500 40.427 L 152.500 42.620 151.481 42.713 C 150.098 42.838,150.092 42.849,150.025 45.326 C 149.961 47.716,149.994 47.659,148.658 47.664 C 147.862 47.667,147.667 47.912,147.666 48.908 C 147.665 49.371,147.617 50.360,147.559 51.106 L 147.454 52.462 146.631 52.541 C 145.272 52.672,145.258 52.708,145.193 56.403 L 145.137 59.628 144.527 59.729 C 144.191 59.784,143.681 59.830,143.393 59.831 C 142.702 59.834,142.667 59.963,142.667 62.506 L 142.667 64.651 141.542 64.701 L 140.417 64.750 140.312 66.500 C 140.255 67.462,140.198 68.531,140.187 68.875 L 140.167 69.500 139.200 69.500 C 137.853 69.500,137.833 69.537,137.833 72.108 L 137.833 74.317 136.836 74.430 C 135.524 74.578,135.508 74.608,135.386 77.148 L 135.282 79.333 134.403 79.333 C 133.064 79.333,133.000 79.456,133.000 82.012 L 133.000 84.167 132.115 84.167 C 130.572 84.167,130.592 84.119,130.529 88.070 L 130.475 91.500 129.342 91.500 L 128.208 91.500 128.104 92.021 C 127.938 92.853,127.984 97.769,128.163 98.239 L 128.325 98.667 132.879 98.667 C 138.324 98.667,137.833 98.925,137.833 96.058 L 137.833 93.849 138.958 93.799 L 140.083 93.750 140.130 91.375 L 140.176 89.000 141.159 89.000 C 142.615 89.000,142.667 88.908,142.667 86.345 L 142.667 84.213 143.610 84.116 C 145.013 83.971,145.073 83.861,145.142 81.328 L 145.200 79.167 146.058 79.164 C 147.462 79.160,147.410 79.299,147.468 75.423 L 147.519 72.000 148.560 72.000 C 149.996 72.000,150.000 71.993,150.000 69.300 L 150.000 67.000 151.050 67.000 C 152.492 67.000,152.500 66.986,152.500 64.383 L 152.500 62.167 153.467 62.167 C 154.813 62.167,154.833 62.128,154.833 59.573 L 154.833 57.380 155.776 57.283 C 157.179 57.138,157.240 57.028,157.308 54.494 L 157.367 52.333 158.330 52.333 C 159.680 52.333,159.738 52.229,159.808 49.655 L 159.866 47.527 160.649 47.419 C 162.068 47.224,162.148 46.983,162.159 42.888 L 162.167 40.193 163.403 40.138 L 164.639 40.083 164.752 41.000 C 164.899 42.207,165.177 42.500,166.173 42.500 C 167.141 42.500,167.160 42.549,167.167 45.083 C 167.173 47.322,167.202 47.374,168.487 47.467 L 169.500 47.540 169.500 49.509 C 169.500 52.237,169.548 52.333,170.913 52.333 L 172.000 52.333 172.000 54.661 C 172.000 57.325,172.004 57.333,173.463 57.333 L 174.281 57.333 174.391 60.375 C 174.536 64.397,174.580 64.500,176.149 64.500 L 176.782 64.500 176.888 66.625 C 177.012 69.123,177.139 69.333,178.518 69.333 L 179.333 69.333 179.333 71.468 C 179.333 74.055,179.398 74.186,180.725 74.297 L 181.667 74.375 181.676 76.062 C 181.682 76.991,181.739 78.050,181.804 78.417 L 181.921 79.083 183.044 79.133 L 184.167 79.182 184.169 81.383 C 184.172 84.046,184.173 84.047,185.572 84.136 L 186.667 84.205 186.667 86.502 C 186.667 89.107,186.605 89.000,188.097 89.000 L 189.000 89.000 189.010 91.125 C 189.032 95.661,189.201 96.167,190.691 96.167 L 191.485 96.167 191.534 97.375 L 191.583 98.583 196.333 98.583 L 201.083 98.583 201.180 97.500 L 201.276 96.417 201.305 97.441 C 201.326 98.202,201.401 98.490,201.597 98.566 C 202.423 98.882,254.489 98.665,254.661 98.344 C 254.947 97.810,254.889 89.807,254.597 89.407 C 254.366 89.091,253.935 89.081,236.388 88.998 C 226.504 88.951,218.754 88.893,219.167 88.870 C 220.295 88.807,220.667 88.361,220.667 87.072 C 220.667 86.559,220.714 86.500,221.126 86.500 C 222.476 86.500,222.994 86.103,222.997 85.062 C 223.001 84.229,223.178 84.069,224.223 83.957 C 225.226 83.850,225.350 83.726,225.457 82.723 C 225.569 81.678,225.729 81.501,226.562 81.497 C 227.603 81.494,228.000 80.976,228.000 79.626 C 228.000 79.214,228.059 79.167,228.572 79.167 C 229.851 79.167,230.327 78.778,230.331 77.729 C 230.334 76.896,230.512 76.736,231.556 76.624 C 232.569 76.516,232.674 76.405,232.808 75.309 L 232.917 74.417 233.886 74.225 C 235.066 73.992,234.992 74.066,235.225 72.886 C 235.393 72.035,235.468 71.911,235.833 71.873 C 237.322 71.716,237.659 71.416,237.664 70.242 C 237.667 69.560,237.935 69.334,238.742 69.331 C 239.772 69.327,240.167 68.845,240.167 67.592 C 240.167 67.049,240.184 67.036,241.043 66.929 C 242.480 66.749,242.636 66.422,242.657 63.549 L 242.667 62.181 243.875 62.132 L 245.083 62.083 245.132 60.882 L 245.181 59.682 246.299 59.632 L 247.417 59.583 247.463 57.208 L 247.509 54.833 248.555 54.833 C 250.121 54.833,250.002 55.663,249.988 44.842 C 249.972 32.691,250.036 33.169,248.423 33.035 L 247.500 32.959 247.500 31.929 C 247.500 30.656,247.351 30.500,246.133 30.500 L 245.167 30.500 245.167 29.615 C 245.167 28.391,244.953 28.161,243.705 28.048 L 242.673 27.954 242.581 27.352 C 242.324 25.665,242.425 25.705,238.387 25.683 L 235.357 25.667 235.242 24.742 C 235.037 23.106,235.064 23.110,224.110 23.193 L 216.637 23.250 216.318 23.643 C 216.104 23.909,216.000 24.298,216.000 24.839 L 216.000 25.642 212.652 25.696 C 208.808 25.758,208.667 25.813,208.667 27.245 L 208.667 27.953 206.633 28.072 C 203.958 28.228,204.023 28.187,203.752 29.875 L 203.652 30.500 202.815 30.500 C 201.553 30.500,201.334 30.680,201.331 31.714 C 201.327 32.832,201.246 32.934,200.274 33.041 C 199.040 33.176,198.917 33.387,198.917 35.354 C 198.917 37.325,199.138 37.667,200.417 37.667 C 201.240 37.667,201.333 37.802,201.333 38.993 C 201.333 40.179,201.336 40.180,205.105 40.129 L 208.417 40.083 208.466 38.975 L 208.514 37.866 210.648 37.808 C 213.235 37.738,213.333 37.683,213.333 36.313 L 213.333 35.333 215.146 35.333 C 218.063 35.333,218.333 35.176,218.333 33.475 L 218.333 32.833 225.667 32.833 L 233.000 32.833 233.000 33.911 C 233.000 35.295,233.073 35.333,235.719 35.333 L 237.792 35.333 237.873 37.292 C 237.980 39.880,238.176 40.162,239.875 40.166 L 240.333 40.167 240.332 44.708 C 240.332 47.206,240.283 49.978,240.224 50.868 L 240.117 52.486 239.017 52.535 L 237.917 52.583 237.868 53.690 L 237.819 54.797 236.868 54.914 C 235.696 55.059,235.501 55.211,235.498 55.979 C 235.493 57.160,235.385 57.303,234.405 57.425 C 233.319 57.561,233.171 57.721,233.051 58.886 L 232.957 59.796 232.056 59.870 C 230.953 59.962,230.823 60.083,230.649 61.185 C 230.493 62.169,230.333 62.327,229.490 62.331 C 228.580 62.335,228.293 62.641,228.205 63.704 L 228.129 64.624 227.205 64.719 C 226.046 64.839,225.839 65.048,225.717 66.224 L 225.620 67.167 224.810 67.167 C 223.711 67.167,223.333 67.547,223.333 68.655 L 223.333 69.476 222.423 69.590 C 221.168 69.747,220.963 69.937,220.872 71.037 L 220.796 71.957 219.886 72.051 C 218.703 72.173,218.553 72.321,218.416 73.508 L 218.301 74.500 217.484 74.500 C 216.380 74.500,216.000 74.879,216.000 75.978 L 216.000 76.790 215.015 76.902 C 213.830 77.036,213.632 77.239,213.534 78.427 L 213.459 79.333 212.771 79.336 C 211.576 79.340,211.270 79.609,211.110 80.796 L 210.971 81.833 210.152 81.833 C 209.046 81.833,208.667 82.211,208.667 83.314 L 208.667 84.128 207.572 84.198 C 206.278 84.280,206.173 84.393,206.169 85.708 L 206.167 86.667 205.208 86.669 C 203.940 86.673,203.822 86.774,203.715 87.955 L 203.624 88.958 202.622 89.048 C 201.419 89.158,201.339 89.260,201.336 90.708 C 201.334 91.346,201.261 91.833,201.167 91.833 C 201.075 91.833,201.000 91.758,201.000 91.667 C 201.000 91.573,200.528 91.500,199.917 91.500 L 198.833 91.500 198.833 89.406 C 198.833 86.786,198.803 86.726,197.418 86.577 L 196.333 86.461 196.323 83.939 C 196.307 79.788,196.204 79.489,194.756 79.369 L 193.833 79.292 193.833 77.490 C 193.833 74.882,193.643 74.507,192.317 74.503 L 191.550 74.500 191.435 72.460 C 191.309 70.241,191.103 69.667,190.434 69.667 C 190.218 69.667,189.807 69.620,189.521 69.563 L 189.000 69.458 189.000 67.262 C 189.000 64.705,188.980 64.667,187.633 64.667 L 186.667 64.667 186.667 62.572 C 186.667 59.909,186.628 59.833,185.257 59.833 L 184.192 59.833 184.138 57.513 C 184.075 54.831,184.138 54.952,182.759 54.864 L 181.697 54.796 181.640 51.550 C 181.575 47.810,181.516 47.667,180.065 47.667 L 179.333 47.667 179.328 46.625 C 179.312 43.680,178.982 42.836,177.843 42.831 C 176.935 42.827,176.891 42.737,176.767 40.620 C 176.617 38.048,176.468 37.838,174.796 37.834 L 174.342 37.833 174.296 35.458 L 174.250 33.083 173.125 33.034 L 172.000 32.985 172.000 30.858 C 172.000 28.273,171.950 28.176,170.559 28.050 L 169.549 27.958 169.448 25.949 C 169.306 23.138,169.540 23.294,165.386 23.237 C 163.570 23.212,161.691 23.244,161.212 23.308 M267.917 23.286 C 267.733 23.332,267.498 23.439,267.393 23.524 C 267.143 23.726,266.921 29.278,267.082 31.311 L 267.202 32.833 284.268 32.833 L 301.333 32.833 301.333 33.635 C 301.333 35.142,301.782 35.307,305.939 35.323 C 308.770 35.335,308.659 35.279,308.664 36.688 C 308.668 37.623,308.925 37.730,311.352 37.806 L 313.500 37.873 313.500 38.758 C 313.500 39.939,313.744 40.167,315.012 40.167 L 316.000 40.167 316.000 41.000 C 316.000 42.121,316.373 42.500,317.478 42.500 L 318.290 42.500 318.402 43.485 C 318.534 44.653,318.713 44.835,319.872 44.976 L 320.750 45.083 320.801 46.162 C 320.860 47.423,320.935 47.494,322.208 47.497 L 323.167 47.500 323.167 49.594 C 323.167 52.262,323.204 52.333,324.589 52.333 L 325.667 52.333 325.667 60.897 L 325.667 69.460 324.664 69.532 C 323.289 69.632,323.273 69.661,323.195 72.159 L 323.128 74.314 322.189 74.428 C 320.985 74.573,320.834 74.709,320.832 75.645 C 320.832 76.070,320.784 77.025,320.726 77.768 L 320.621 79.120 319.519 79.268 L 318.417 79.417 318.367 80.542 L 318.318 81.667 317.276 81.667 C 315.971 81.667,315.833 81.805,315.833 83.117 L 315.833 84.167 313.782 84.167 C 311.287 84.167,311.146 84.238,311.037 85.558 L 310.959 86.500 309.271 86.510 C 308.343 86.515,307.283 86.572,306.917 86.637 L 306.250 86.755 306.201 87.877 L 306.151 89.000 291.497 89.000 L 276.842 89.000 276.796 74.673 C 276.754 61.455,276.728 60.323,276.467 60.062 C 276.157 59.752,267.524 59.590,267.223 59.889 C 267.052 60.058,266.931 92.965,267.089 96.294 L 267.202 98.672 287.531 98.628 C 310.543 98.577,308.200 98.740,308.415 97.177 L 308.525 96.379 311.672 96.297 C 315.105 96.207,315.667 96.062,315.667 95.267 C 315.667 95.051,315.714 94.641,315.771 94.354 L 315.875 93.833 317.313 93.826 C 320.056 93.812,320.460 93.635,320.609 92.381 L 320.709 91.537 321.690 91.466 C 322.914 91.378,323.044 91.245,323.134 90.002 L 323.207 89.000 324.237 89.000 C 325.526 89.000,325.667 88.858,325.667 87.558 L 325.667 86.515 326.792 86.466 L 327.917 86.417 327.965 85.312 L 328.014 84.207 328.932 84.131 C 330.331 84.015,330.406 83.879,330.475 81.328 L 330.533 79.167 331.567 79.167 C 332.990 79.167,333.000 79.148,333.000 76.556 L 333.000 74.345 333.812 74.237 C 335.392 74.027,335.317 74.662,335.326 61.408 C 335.334 49.062,335.446 50.000,333.967 50.000 L 333.000 50.000 332.995 47.792 C 332.984 43.669,332.744 42.833,331.565 42.833 C 330.586 42.833,330.500 42.732,330.500 41.575 C 330.500 40.345,330.473 40.320,329.066 40.207 L 328.000 40.121 328.000 38.133 C 328.000 35.665,327.952 35.566,326.690 35.419 L 325.707 35.305 325.595 34.321 C 325.461 33.133,325.278 33.000,323.785 33.000 C 323.197 33.000,322.258 32.952,321.698 32.894 L 320.681 32.787 320.632 31.685 L 320.583 30.583 319.479 30.535 L 318.375 30.486 318.264 29.508 C 318.117 28.209,318.051 28.174,315.519 28.053 L 313.333 27.949 313.333 27.069 C 313.333 25.597,313.649 25.667,306.988 25.667 L 301.167 25.667 301.167 24.782 C 301.167 23.085,302.969 23.253,284.472 23.226 C 275.550 23.213,268.100 23.240,267.917 23.286 M361.212 23.317 C 360.117 23.453,360.003 23.573,359.885 24.714 L 359.789 25.642 356.484 25.696 C 352.707 25.758,352.720 25.753,352.559 27.113 L 352.459 27.956 351.366 28.058 C 350.092 28.177,350.006 28.270,350.003 29.534 L 350.000 30.485 348.877 30.534 C 348.030 30.571,347.745 30.645,347.720 30.833 C 347.702 30.971,347.640 31.515,347.582 32.042 L 347.476 33.000 346.613 33.003 C 345.204 33.007,345.257 32.867,345.199 36.743 C 345.141 40.615,345.282 40.277,343.676 40.373 C 342.670 40.432,342.623 40.674,342.693 45.451 C 342.758 49.894,342.725 49.795,344.209 49.948 L 345.137 50.044 345.193 53.266 C 345.259 56.991,345.269 57.017,346.710 57.162 L 347.583 57.250 347.671 58.124 C 347.807 59.478,347.980 59.573,350.423 59.642 L 352.500 59.701 352.500 60.761 C 352.500 62.127,352.577 62.167,355.239 62.167 L 357.333 62.167 357.333 62.729 C 357.333 64.645,357.391 64.665,362.958 64.666 L 367.167 64.667 367.167 65.633 C 367.167 67.061,366.940 67.000,372.200 67.000 L 376.833 67.000 376.836 67.958 C 376.840 69.421,376.819 69.409,379.388 69.471 L 381.623 69.525 381.715 70.547 C 381.827 71.781,382.060 72.000,383.261 72.000 L 384.125 72.000 384.202 72.923 C 384.298 74.085,384.433 74.212,385.664 74.301 L 386.667 74.373 386.667 79.263 L 386.667 84.152 385.458 84.201 L 384.250 84.250 384.201 85.354 L 384.152 86.458 382.160 86.577 C 379.765 86.720,379.538 86.847,379.389 88.125 L 379.287 89.000 368.310 89.000 L 357.333 89.000 357.331 88.042 C 357.327 86.579,357.350 86.592,354.756 86.525 L 352.500 86.467 352.500 85.581 C 352.500 84.202,352.466 84.167,351.149 84.167 L 350.000 84.167 350.000 83.282 C 350.000 81.742,350.019 81.750,346.355 81.750 C 343.976 81.750,343.129 81.804,342.966 81.966 C 342.722 82.211,342.641 91.029,342.881 91.270 C 342.954 91.342,343.497 91.433,344.090 91.470 L 345.167 91.539 345.167 92.321 C 345.167 93.663,345.308 93.742,347.820 93.805 L 350.000 93.860 350.003 94.805 C 350.007 96.310,349.834 96.243,353.827 96.301 L 357.333 96.352 357.333 97.187 C 357.333 98.822,356.059 98.667,369.473 98.667 C 382.674 98.667,381.667 98.778,381.667 97.323 L 381.667 96.380 384.826 96.297 C 388.273 96.207,388.833 96.063,388.833 95.267 C 388.833 93.997,388.967 93.833,390.009 93.833 C 391.254 93.833,391.500 93.601,391.500 92.425 L 391.500 91.540 392.513 91.467 C 393.818 91.372,393.828 91.352,393.831 88.708 L 393.833 86.500 394.982 86.500 C 396.461 86.500,396.333 87.309,396.333 77.936 C 396.333 68.859,396.442 69.500,394.900 69.500 L 393.868 69.500 393.809 67.423 C 393.732 64.694,393.806 64.768,391.084 64.691 L 389.014 64.633 388.965 63.441 L 388.917 62.250 387.792 62.201 L 386.667 62.151 386.657 61.617 C 386.652 61.324,386.558 60.821,386.449 60.500 L 386.250 59.917 384.417 59.813 C 383.408 59.756,381.824 59.700,380.896 59.688 L 379.209 59.667 379.128 58.821 C 378.990 57.387,379.121 57.424,374.016 57.363 L 369.544 57.310 369.453 56.302 C 369.324 54.878,369.450 54.925,365.575 54.858 L 362.167 54.799 362.167 54.020 C 362.167 52.605,361.984 52.500,359.513 52.500 L 357.379 52.500 357.291 51.407 C 357.184 50.072,357.225 50.113,355.932 50.031 L 354.877 49.964 354.797 47.888 C 354.705 45.488,354.643 45.374,353.365 45.223 L 352.500 45.120 352.500 43.917 L 352.500 42.713 353.440 42.616 C 354.731 42.483,354.742 42.462,354.805 39.999 L 354.860 37.847 356.055 37.799 L 357.250 37.750 357.299 36.542 L 357.348 35.333 359.435 35.333 C 362.095 35.333,362.167 35.296,362.167 33.911 L 362.167 32.833 370.750 32.833 L 379.333 32.833 379.333 33.911 C 379.333 35.296,379.405 35.333,382.072 35.333 L 384.167 35.333 384.167 35.896 C 384.167 37.825,384.307 37.875,389.531 37.803 C 394.306 37.737,393.855 38.156,393.795 33.838 L 393.750 30.583 392.625 30.534 L 391.500 30.485 391.497 29.534 C 391.494 28.079,391.515 28.091,388.923 28.029 L 386.667 27.974 386.667 27.020 C 386.667 25.634,386.759 25.667,382.820 25.667 L 379.373 25.667 379.301 24.664 C 379.261 24.113,379.136 23.569,379.023 23.456 C 378.798 23.231,362.906 23.107,361.212 23.317 " stroke="none" fill="#fcfcfc" fill-rule="evenodd"></path><path id="path1" d="M60.125 20.782 C 59.883 20.845,59.833 21.052,59.833 21.989 L 59.833 23.120 58.814 23.213 C 57.432 23.338,57.426 23.349,57.359 25.826 C 57.294 28.218,57.329 28.159,55.979 28.164 C 55.111 28.168,55.040 28.343,54.906 30.793 L 54.786 33.000 53.905 33.000 C 52.496 33.000,52.500 32.989,52.500 36.821 L 52.500 40.118 51.410 40.220 C 49.930 40.358,50.000 40.229,50.000 42.843 L 50.000 45.167 48.927 45.167 C 47.598 45.167,47.657 45.055,47.544 47.757 L 47.450 50.000 46.508 50.000 C 45.189 50.000,45.167 50.044,45.167 52.595 L 45.167 54.790 44.208 54.900 C 42.699 55.072,42.674 55.141,42.668 59.208 L 42.667 59.833 41.673 59.833 C 40.416 59.833,40.333 59.970,40.333 62.052 C 40.333 64.531,40.282 64.667,39.344 64.667 C 37.838 64.667,37.874 64.543,37.845 69.875 L 37.833 72.000 36.685 72.000 C 35.300 72.000,35.348 71.902,35.352 74.725 C 35.355 77.047,35.480 76.825,34.152 76.876 L 33.083 76.917 33.037 79.273 L 32.991 81.628 31.901 81.698 C 30.534 81.785,30.523 81.804,30.527 84.072 C 30.532 86.744,30.031 86.500,35.506 86.500 L 40.167 86.500 40.167 85.333 L 40.167 84.167 41.155 84.167 C 42.624 84.167,42.667 84.089,42.667 81.405 L 42.667 79.167 43.551 79.167 C 44.993 79.167,45.059 79.058,45.137 76.537 L 45.205 74.371 46.108 74.297 C 47.378 74.191,47.404 74.140,47.500 71.617 L 47.583 69.417 48.454 69.329 C 49.856 69.188,49.967 68.848,49.988 64.625 L 50.000 62.167 51.050 62.167 C 52.492 62.167,52.500 62.153,52.500 59.550 L 52.500 57.333 53.494 57.333 C 54.789 57.333,54.833 57.239,54.833 54.511 L 54.833 52.333 55.718 52.333 C 57.162 52.333,57.225 52.227,57.305 49.685 L 57.373 47.500 58.061 47.498 C 59.647 47.492,59.831 47.170,59.832 44.398 L 59.833 42.713 60.774 42.616 C 62.116 42.478,62.077 42.590,62.135 38.742 L 62.186 35.333 63.226 35.333 C 63.798 35.333,64.347 35.253,64.446 35.154 C 64.574 35.026,64.658 35.286,64.741 36.060 C 64.879 37.344,65.067 37.547,66.231 37.664 L 67.083 37.750 67.167 39.889 C 67.263 42.350,67.349 42.500,68.677 42.500 L 69.457 42.500 69.533 44.755 C 69.621 47.356,69.628 47.368,70.998 47.468 L 72.000 47.540 72.000 49.673 C 72.000 52.415,71.962 52.333,73.243 52.333 L 74.283 52.333 74.379 54.618 C 74.490 57.260,74.532 57.333,75.949 57.333 L 76.833 57.333 76.849 58.875 C 76.858 59.723,76.852 60.702,76.836 61.050 C 76.793 61.982,77.031 62.167,78.270 62.167 L 79.333 62.167 79.348 64.375 C 79.356 65.590,79.352 66.922,79.338 67.337 C 79.288 68.828,79.668 69.327,80.854 69.331 L 81.624 69.333 81.742 71.375 C 81.886 73.860,81.997 74.080,83.177 74.220 C 84.273 74.350,84.168 74.103,84.184 76.599 C 84.200 79.143,84.213 79.167,85.604 79.167 L 86.667 79.167 86.667 81.494 C 86.667 84.164,86.668 84.167,88.156 84.167 C 88.993 84.167,89.000 84.171,89.019 84.708 C 89.029 85.006,89.048 85.513,89.060 85.833 L 89.083 86.417 93.789 86.453 C 99.355 86.495,98.862 86.744,98.788 83.931 C 98.730 81.689,98.788 81.784,97.410 81.696 L 96.333 81.628 96.333 79.418 C 96.333 76.998,96.253 76.780,95.383 76.838 C 95.127 76.855,94.679 76.861,94.388 76.851 L 93.858 76.833 93.804 73.486 C 93.743 69.683,93.784 69.791,92.330 69.599 L 91.500 69.489 91.486 68.369 C 91.449 65.417,91.215 64.883,89.888 64.725 L 89.047 64.626 88.957 62.544 C 88.853 60.133,88.777 59.994,87.512 59.872 L 86.667 59.791 86.667 57.677 C 86.667 55.083,86.608 54.970,85.202 54.868 L 84.192 54.795 84.138 52.558 C 84.075 49.985,84.088 50.006,82.625 50.003 L 81.667 50.000 81.667 47.783 C 81.667 45.208,81.645 45.167,80.322 45.167 L 79.378 45.167 79.301 42.125 C 79.206 38.327,79.141 38.146,77.791 37.931 L 76.833 37.779 76.825 36.765 C 76.799 33.652,76.607 33.188,75.290 33.052 L 74.366 32.957 74.308 30.880 C 74.240 28.457,74.072 28.167,72.732 28.167 L 72.000 28.167 71.999 26.375 C 71.998 23.452,71.822 23.176,69.958 23.169 C 69.503 23.167,69.500 23.159,69.500 22.019 C 69.500 20.971,69.468 20.864,69.125 20.772 C 68.696 20.657,60.568 20.666,60.125 20.782 " stroke="none" fill="#30b5bd" fill-rule="evenodd"></path><path id="path2" d="" stroke="none" fill="#100d0d4" fill-rule="evenodd"></path><path id="path3" d="" stroke="none" fill="#100d0d4" fill-rule="evenodd"></path><path id="path4" d="" stroke="none" fill="#100d0d4" fill-rule="evenodd"></path></g></svg>